<?xml version="1.0" encoding="utf-8"?>
<!-- Generator: Adobe Illustrator 16.0.0, SVG Export Plug-In . SVG Version: 6.00 Build 0)  -->
<!DOCTYPE svg PUBLIC "-//W3C//DTD SVG 1.1//EN" "http://www.w3.org/Graphics/SVG/1.1/DTD/svg11.dtd">
<svg version="1.1" id="Layer_1" xmlns="http://www.w3.org/2000/svg" xmlns:xlink="http://www.w3.org/1999/xlink" x="0px" y="0px"
	 width="1200px" height="1200px" viewBox="0 0 1200 1200" enable-background="new 0 0 1200 1200" xml:space="preserve">
<g>
	<path fill-rule="evenodd" clip-rule="evenodd" d="M435.354,824.271c11.994-7.492,27.07-9.617,33.871-24.314
		c-1.154,4.188-1.024,9.611-3.671,12.358c-16.992,17.626-38.293,27.438-62.507,28.849c-12.093,0.703-25.179,4.07-36.636-3.9
		c-27.504-2.262-42.098-21.512-53.193-43.143c-4.631-9.029-8.029-20.216-6.684-31.284c1.229-10.103-4.012-21.136,4.177-30.265
		c-1.758-16.672,9.907-26.442,19.808-36.523c9.673-9.852,20.857-18.201,31.22-27.393c3.16-2.801,6.243-3.636,8.513,0.104
		c0.624,1.028-1.878,5.762-3.221,5.888c-10.025,0.944-9.645,10.945-14.009,16.377c-6.233,7.764-5.897,18.995-8.959,28.217
		c-3.509,10.57-4.734,19.455-0.326,29.234c3.365,7.463-2.372,16.984,5.426,23.369c-1.598,12.225,10.513,18.357,12.816,28.849
		c12.151,5.638,20.623,16.676,33.604,21.615c8.542,3.252,16.566,0.903,24.723,2.09c1.311,0.19,2.715-0.253,4.916-0.496
		c0-50.732,0-101.559,0-152.821c-3.778,0-7.129,0-11.228,0c0,29.155,0,58.133,0,88.195c-8.235,6.043-16.106,12.775-24.884,17.982
		c-8.184,4.855-17.333,8.092-27.732,12.798c2.378-10.872,14.309-10.921,17.689-22.212c0-10.047,0.369-23.55-0.158-37.016
		c-0.259-6.615,0.604-12.816-3.423-19.971c-5.416-9.619,5.593-29.745,16.59-35.905c4.02-2.251,8.25-4.124,12.271-6.116
		c-8.875-10.301-22.484-5.619-33.565-10.369c-13.046-5.594-28.197-6.784-42.76-4.721c-5.753,0.814-11.542,3.112-16.72,5.857
		c-7.581,4.02-3.912,12.477-5.887,23.466c-3.321-6.048-4.878-8.884-7.042-12.821c3.502-7.568,7.779-17.188,12.436-26.617
		c1.19-2.408,3.207-4.957,5.509-6.162c9.333-4.877,18.583-11.771,28.514-13.121c10.334-1.404,22.43-4.915,32.292,3.577
		c23.031,1.081,44.43,10.732,67.271,12.808c0.706,0.065,1.603-0.272,2.107,0.051c10.38,6.643,19.948,4.326,30.183-1.216
		c9.321-5.046,16.588-11.309,20.825-21.053c0.527-1.214,1.948-2.04,5.343-5.435c-0.864,6.621-0.359,11.203-2.103,14.646
		c-7.346,14.506-18.934,25.396-32.275,34.283c-9.686,6.455-20.223,11.047-33.124,8.126
		C435.354,722.152,435.354,772.979,435.354,824.271z"/>
	<path fill-rule="evenodd" clip-rule="evenodd" d="M107.004,394.265c-17.149,15.998-21.607,37.986-28.722,58.478
		c-4.095,11.788,2.057,23.364,4.758,34.315c3.586,14.529,8.657,29.286,20.186,40.711c16.347,16.198,35.905,23.291,59.394,24.544
		c0-53.239,0-105.497,0-158.949c-8.676,0.544-11.958,4.858-11.916,13.042c0.131,26.328,0.048,52.654,0.048,78.936
		c-16.642,16.091-35.731,26.301-50.893,26.839c5.843-4.623,11.25-8.899,16.51-13.061c0-28.967,0-57.38,0-87.235
		c7.965-6.377,16.509-13.217,26.493-21.209c-19.982-2.284-37.705-10.486-57.217-10.038c-6.644,0.152-13.296-7.898-19.947,0.033
		c-16.054-2.303-20.718,8.697-24.757,20.912c-1.512-18.2,5.222-31.966,20.383-42.384c18.28-12.563,38.761-10.243,58.03-7
		c16.183,2.724,32.485,6.886,48.606,10.954c7.677,1.936,14.923,5.447,23.758,5.119c26.764-0.993,34.899-5.451,46.819-30.681
		c3.89,8.926,1.971,15.484-4.79,22.466c-8.843,9.13-14.188,20.962-26.819,27.335c-6.354,3.206-12.013,8.317-18.73,5.701
		c-5.353-2.084-9.116,9.206-15.026-1.756c-2.026,27.436-0.782,52.685-1.01,77.877c-0.229,25.531-0.05,51.066-0.05,78.479
		c14.535-2.681,23.007-12.08,32.955-20.312c3.555,4.948,1.539,9.83-3.733,14.177c-13.02,10.726-27.468,18.741-43.935,22.79
		c-6.485,1.595-13.008,3.857-19.582,4.12c-22.101,0.887-43.46-4.167-60.924-17.328c-15.769-11.882-28.822-27.156-28.887-49.408
		c-0.017-5.818-4.051-11.688-3.813-17.437c1.014-24.717,7.908-48.214,25.091-66.144C79.2,407.805,90.919,397.692,107.004,394.265z"
		/>
	<path fill-rule="evenodd" clip-rule="evenodd" d="M536.611,703.737c10.586-7.111,20.039-13.462,30.375-20.403
		c12.651,3.279,7.063,18.672,14.634,25.414c10.438-5.896,20.646-12.02,31.181-17.522c10.845-5.664,14.136-5.15,21.793,2.159
		c5.143,4.908,10.078,10.033,15.517,15.472c12.624-8.179,25.35-16.423,37.938-24.579c2.931,1.162,6.263,1.739,8.646,3.561
		c9.622,7.348,16.058,16.356,15.715,29.4c-0.448,17.053-0.184,34.127-0.076,51.193c0.047,7.463,0.17,14.469,3.816,21.901
		c5.154,10.507,3.911,11.116,18.693,14.263c-10.837,8.671-20.546,16.438-30.818,24.654c-19.104-12.176-27.384-29.174-26.119-51.98
		c1.059-19.131,0.216-38.368,0.216-57.479c-12.46-14.91-17.435-14.981-29.813-0.085c0,24.037,0,48.189,0,74.396
		c5.744,3.522,12.472,7.649,19.965,12.245c-9.779,7.106-20.783,15.107-33.102,24.059c-4.804-4.726-9.669-8.67-13.468-13.463
		c-4.591-5.792-7.98-12.156-7.798-20.246c0.418-18.479,0.132-36.973,0.132-55.459c0-3.557,0.152-7.119-0.024-10.666
		c-0.983-19.652-12.135-25.625-29.247-15.602c-1.781,1.045-3.054,2.956-4.906,4.809c0,18.805-0.091,37.957,0.027,57.109
		c0.115,18.599,3.232,22.673,23.324,29.483c-11.002,7.665-21.063,14.673-32.272,22.483c-17.505-10.893-26.296-27.031-25.382-49.001
		c0.649-15.616,0.13-31.282,0.123-46.925C545.678,716.313,545.673,716.313,536.611,703.737z"/>
	<path fill-rule="evenodd" clip-rule="evenodd" d="M499.741,385.297c18.46,21.148,39.839,34.165,61.794,46.975
		c22.537,13.15,42.562,29.732,47.178,58.121c0.485,2.987,3.166,6.748,2.117,8.661c-4.84,8.819-2.319,20.044-10.163,27.944
		c-5.729,5.771-8.988,15.875-15.55,18.453c-8.092,3.182-8.948,11.52-15.061,14.396c-7.859,3.698-6.654,12.197-11.52,17.577
		c-6.371-0.426-8.168-4.941-10.898-10.151c-2.195-4.187-8.686-5.88-12.438-9.535c-12.751-12.418-29.613-15.418-45.701-18.315
		c-7.412-1.335-16.145,4.66-24.704,7.47c-8.74-7.074,0.418-14.296,2.649-19.582c10.983-26,25.827-34.549,52.466-22.364
		c13.845,6.331,25.852,16.672,38.742,25.12c4.977,3.265,10.101,6.308,16.753,10.442c2.613-4.746,4.146-9.16,7.029-12.355
		c3.77-4.176,3.747-6.329,1.283-12.176c-8.601-20.421-8.467-19.916-25.499-33.702c-20.483-16.58-45.696-25.395-65.917-41.988
		c-6.569-5.388-12.527-12.364-16.508-19.819c-3.823-7.16,1.549-14.607,4.757-21.178c4.934-10.105,9.583-20.825,16.728-29.276
		c15.654-18.518,35.292-30.374,60.914-27.652c3.101,0.33,5.969,2.668,8.98,3.997c6.622,2.918,13.368,5.576,19.881,8.717
		c15.196,7.335,15.521,7.497,28.453,5.393c-10.716,13.678-21.424,27.346-32.905,42.004c-8.623,4.856-7.649-11.019-15.785-9.465
		c-2.668-9.243-11.769-13.129-18.273-17.214c-10.872-6.823-23.003-11.896-37.925-4.484
		C502.886,375.152,506.756,382.617,499.741,385.297z"/>
	<path fill-rule="evenodd" clip-rule="evenodd" d="M971.015,414.848c0,4.971,0,7.812,0,12.111
		c-6.617,0.395-13.345,0.793-21.361,1.271c0,24.919,0,49.601,0,74.286c0,0.709-0.106,1.439,0.018,2.128
		c2.498,13.997,11.001,18.857,25.662,14.216c-0.383,2.15-0.059,4.672-1.165,5.838c-7.325,7.729-14.819,15.314-22.531,22.654
		c-6.495,6.179-10.701,6.061-17.444-0.736c-3.813-3.842-7.065-8.326-10.093-12.837c-2.538-3.784-4.386-8.031-6.852-12.668
		c-10.036,10.288-19.928,20.428-30.696,31.467c-4.69-1.348-12.4-1.248-14.432-4.593c-5.432-8.943-15.208-14.075-17.036-26.72
		c-4.426-30.621-3.292-61.246-3.771-93.375c-7.047,0-13.8,0-20.845,0c0-4.833,0-8.177,0-12.282c6.283,0,12.506,0,20.191,0
		c0.264-6.071,1.699-11.78,0.392-16.77c-1.286-4.91-5.353-9.095-8.771-14.502c6.933-4.42,13.922-8.903,20.936-13.342
		c6.612-4.188,13.255-8.335,22.355-14.051c0,15.92-0.122,29.196,0.034,42.469c0.157,13.593,1.846,15.126,15.979,15.424
		c4.174,0.087,8.348,0.013,12.598,0.013c4.585-12.399-2.604-21.242-8.377-30.217c14.318-9.028,27.606-17.405,42.452-26.768
		c2.738,11.35,0.853,21.776,1.359,31.983c0.214,4.251-0.136,8.53,0.072,12.779c0.424,8.711,3.333,11.457,12.806,12.189
		C965.319,415.032,968.173,414.848,971.015,414.848z M885.571,428.124c0,25.005-0.311,49.579,0.262,74.133
		c0.114,4.89,3.142,9.974,5.684,14.483c3.843,6.826,11.186,5.822,16.858,4.502c4.143-0.964,7.381-5.067,7.284-11.177
		c-0.424-27.325-0.183-54.662-0.183-81.941C904.775,428.124,895.774,428.124,885.571,428.124z"/>
	<path fill-rule="evenodd" clip-rule="evenodd" d="M256.763,597.987c1.596-9.888,9.399-12.541,13.028-18.257
		c3.517-5.543,7.611-11.378,8.815-17.594c2.465-12.723,3.709-25.758,4.431-38.723c0.71-12.763,0.247-25.598,0.132-38.4
		c-0.144-15.843,1.951-31.924-5.997-47.254c-10.668-1.091-10.668-1.091-23.606,4.418c0,26.833,0,53.787,0,82.645
		c3.71,2.938,8.644,6.84,12.325,9.754c-9.024,9.035-16.995,17.012-25.888,25.913c-13.586-9.504-22.043-21.464-21.223-40.499
		c1.253-29.108,0.344-58.311,0.324-87.476c-0.01-16.834-0.91-19.147-12.377-32.848c14.448-9.5,28.925-19.019,45.128-29.672
		c2.647,12.134,1.081,22.585,1.375,32.859c0.275,9.696,0.058,19.404,0.058,31.651c14.462-9.043,26.285-16.434,38.986-24.375
		c4.527,2.846,9.997,5.503,14.509,9.297c7.049,5.931,10.697,13.735,10.643,23.278c-0.154,27.029-0.417,54.066,0.122,81.086
		c0.221,11.064-5.605,19.861-11.186,27.296c-12.095,16.115-26.584,30.46-40.446,45.195
		C264.395,597.897,260.583,597.353,256.763,597.987z"/>
	<path fill-rule="evenodd" clip-rule="evenodd" d="M759.384,427.702c-6.229,8.505-6.229,8.505-6.281,36.308
		c-4.091,2.126-8.152,4.304-12.274,6.361c-3.51,1.754-7.091,3.369-12.713,6.022c-1.147-13.956-0.358-26.342-0.63-37.495
		c15.633-9.862,30.677-18.459,44.648-28.541c7.067-5.1,11.325-5.064,17.913,0.453c9.8,8.203,20.722,15.059,31.44,22.686
		c0,22.019-0.016,43.955,0.004,65.894c0.021,20.416,2.013,23.073,20.87,28.589c-10.369,8.73-20.939,17.629-33.047,27.821
		c-6.831-9.379-14.113-19.381-22.04-30.269c-6.728,2.339-10.696,9.473-16.123,14.619c-8.326,7.892-18.223,15.497-28.887,10.276
		c-9.542-4.673-15.395-15.099-14.924-27.457c0.2-5.25,2.59-11.466-4.069-16.012c9.633-11.757,23.859-16.271,36.05-23.779
		c4.548-2.803,9.001-5.778,13.357-8.876c14.573-10.365,14.551-10.401,14.475-29.337C778.41,439.53,768.879,433.604,759.384,427.702z
		 M786.58,520.388c0-15.897,0-30.499,0-46.182c-7.517,4.869-14,9.076-20.493,13.267c-8.47,5.466-11.63,12.009-7.609,19.96
		c3.536,7.002,9.002,13.029,13.476,19.289C777.7,524.233,781.886,522.42,786.58,520.388z"/>
	<path fill-rule="evenodd" clip-rule="evenodd" d="M832.255,820.018c-3.488-16.729,6.806-27.096,19.047-38.195
		c19.388-1.893,33.796,10.82,49.047,22.107c2.025-1.548,3.736-2.613,5.137-3.995c1.409-1.385,2.511-3.083,3.541-4.382
		c-0.61-1.867-0.713-3.363-1.479-4.336c-11.28-14.332-26.93-23.2-41.654-33.244c-7.33-5-14.438-10.328-20.848-14.934
		c-0.395-14.597-3.34-28.645,7.174-38.793c7.101-6.85,17.95-9.996,24.504-17.185c7.429-8.144,15.618-8.214,24.707-7.771
		c2.557,0.127,5.302,1.016,7.535,2.297c12.627,7.247,12.583,7.324,26.449-4.451c-1.863,5.682-2.224,8.771-3.752,11.1
		c-6.271,9.554-12.896,18.876-19.306,28.157c-11.004-7.078-21.933-14.108-32.582-20.956c-11.95,10.742-12.47,12.859-3.573,21.367
		c3.813,3.645,8.004,6.994,12.725,9.985c13.352,8.464,24.898,19.771,35.655,28.712c5.782,23.906-4.397,40.384-17.621,55.965
		c-4.758,5.607-8.818,11.809-13.855,18.633C873.876,817.516,854.197,809.553,832.255,820.018z"/>
	<path fill-rule="evenodd" clip-rule="evenodd" d="M713.002,502.734c4.738,15.019-5.52,19.202-11.398,25.245
		c-5.637,5.799-12.901,9.976-19.11,15.263c-16.84,14.347-44.633,8.307-53.008-12.387c-2.96-7.307-4.126-15.732-4.322-23.693
		c-0.559-22.703-0.196-45.427-0.196-69.511c19.676-10.516,39.918-21.336,60.276-32.218c10.277,16.308,20.069,31.843,30.651,48.633
		c-16.717,11.288-33.082,22.369-49.48,33.399c-8.613,5.792-8.032,6.936-4.055,18.562c3.221,9.406,6.858,16.171,17.769,17.85
		c3.196,0.49,5.182,1.809,8.956,0.265C699.163,520.018,706.796,513.572,713.002,502.734z M662.727,427.731
		c-0.987,0.278-1.977,0.555-2.962,0.831c0,17.915,0,35.83,0,56.033c9.465-7.43,17.433-13.688,25.305-19.87
		C677.032,451.418,669.879,439.574,662.727,427.731z"/>
	<path fill-rule="evenodd" clip-rule="evenodd" d="M338.73,439.079c20.727-11.481,39.205-21.718,59.327-32.865
		c10.303,15.351,21.036,31.343,32.292,48.114c-19.307,13.69-37.271,26.432-57.318,40.65c-5.33,10.211,5.591,18.138,11.012,26.224
		c5.445,8.121,21.75,6.279,31.271-1.546c5.466-4.491,10.132-9.954,17.399-17.222c-1.642,7.195,4.434,11.513-6.203,15.864
		c-10.926,4.468-18.955,15.683-28.825,23.187c-6.288,4.779-13.234,9.437-20.634,11.732c-4.585,1.422-12,0.01-15.671-3.073
		c-12.749-10.708-22.694-23.596-22.659-41.6C338.763,485.104,338.73,461.663,338.73,439.079z M372.577,431.987
		c1.182,17.497-1.245,34.455,2.086,53.504c9.083-6.99,16.35-12.584,23.746-18.278C388.932,446.685,380.549,434.553,372.577,431.987z
		"/>
	<path fill-rule="evenodd" clip-rule="evenodd" d="M1142.167,503.06c0.403,10.947-3.86,16.703-12.537,21.023
		c-8.213,4.089-14.23,12.439-22.36,17.942c-8.246,5.583-16.351,12.185-25.866,9.08c-10.812-3.529-20.805-10.156-24.968-22.255
		c-1.28-3.724-4.573-7.693-3.939-10.975c2.477-12.892-5.335-24.131-4.72-36.679c0.627-12.764,0.138-25.583,0.138-40.781
		c18.983-11.127,39.031-22.878,60.41-35.408c11.494,12.5,19.335,27.189,28.222,41.034c3.491,5.434,1.544,11.963-4.102,14.212
		c-13.414,5.342-22.328,16.984-35.139,23.236c-9.274,4.524-13.095,15.134-10.942,22.892c2.028,7.308,16.743,20.506,23.307,19.085
		c6.207-1.342,12.238-4.902,17.534-8.637C1132.699,512.958,1137.22,507.708,1142.167,503.06z M1112.566,465.069
		c-8.747-13.267-16.543-25.088-26.014-39.451c-7.769,20.775-3.478,39.267-3.941,60.361
		C1093.79,478.175,1102.596,472.03,1112.566,465.069z"/>
	<path fill-rule="evenodd" clip-rule="evenodd" d="M974.477,370.666c14.16-8.665,27.158-16.622,41.842-25.606
		c0.689,4.162,1.62,7.169,1.627,10.178c0.093,44.003,0.045,88.005,0.081,132.01c0.005,7.472,0.624,14.4,3.818,21.839
		c5.93,13.805,7.038,15.282,22.292,9.958c0.938-0.325,1.968-0.394,6.602-1.277c-7.501,8.472-12.924,14.83-18.664,20.886
		c-1.215,1.282-5.161,1.382-5.197,2.157c-0.336,6.792-4.672,11.164-10.253,10.313c-6.211-0.948-14.063-3.715-17.401-8.399
		c-8.442-11.836-15.925-24.361-15.603-40.344c0.691-34.052,0.217-68.13,0.21-102.196
		C983.827,383.599,983.82,383.599,974.477,370.666z"/>
	<path fill-rule="evenodd" clip-rule="evenodd" d="M802.207,682.135c11.034,17.466,20.203,31.975,29.707,47.015
		c-18.025,12.558-36.165,25.197-55.216,38.47c0,4.1,0,9.684,0,16.207c4.59,4.058,9.846,8.703,16.918,14.955
		c15.289,2.317,28.583-4.158,38.546-25.406c-0.735,8.33,0.392,13.457-1.649,15.709c-12.492,13.771-25.898,26.654-42.66,35.363
		c-13.505,7.02-26.571,4.576-34.994-9.117c-5.762-9.369-11.683-19.119-10.957-31.715c1.139-19.799,0.833-39.73,0.031-59.561
		c-0.302-7.507,2.531-12.732,7.888-15.865C766.838,698.236,784.58,689.638,802.207,682.135z M772.84,703.809
		c0,18.223,0,34.764,0,52.284c3.104,0,6.461,1.04,8.36-0.184c7.604-4.896,14.757-10.493,24.096-17.304
		C789.788,729.84,790.179,710.336,772.84,703.809z"/>
	<path fill-rule="evenodd" clip-rule="evenodd" d="M505.603,683.839c7.943,8.114,10.483,16.734,10.292,26.81
		c-0.39,20.526-0.244,41.065-0.029,61.599c0.055,5.302,0.407,10.106,3.169,15.688c6.463,13.074,5.297,13.649,19.386,17.598
		c-10.785,8.4-20.913,16.291-30.248,23.563c-7.276-7.438-13.617-13.92-22.46-22.959c-7.416-23.816-4.504-52.553-3.413-80.855
		c0.403-10.436-8.513-13.836-9.765-21.633C483.771,696.916,494.479,690.502,505.603,683.839z"/>
	<path fill-rule="evenodd" clip-rule="evenodd" d="M471.168,431.937c17.733,15.395,36.732,28.476,57.751,39.522
		c15.271,8.025,31.335,17.158,41.709,32.354c1.767,2.591,2.084,6.171,3.073,9.295c-22.197-22.039-52.237-32.394-76.494-51.329
		C486.673,453.556,471.585,449.073,471.168,431.937z"/>
	<path fill-rule="evenodd" clip-rule="evenodd" d="M486.886,683.716c-5.083-19.571,13.838-27.563,15.127-43.867
		c7.562,5.106,12.793,8.642,19.1,12.901C512.022,664.953,501.899,675.74,486.886,683.716z"/>
	<path fill-rule="evenodd" clip-rule="evenodd" d="M467.74,432.001c-0.198-4.151-0.395-8.305-0.591-12.458
		c0.953-0.088,1.903-0.175,2.854-0.261c0.549,4.195,1.097,8.392,1.646,12.589C470.346,431.916,469.044,431.96,467.74,432.001z"/>
	<path fill-rule="evenodd" clip-rule="evenodd" d="M973.498,410.924c0.496,0.494,1.404,1.193,1.318,1.352
		c-0.505,0.928-1.239,1.729-1.897,2.572c-0.633-0.635-1.271-1.271-1.904-1.905C971.844,412.27,972.676,411.593,973.498,410.924z"/>
	<path fill-rule="evenodd" clip-rule="evenodd" d="M577.625,515.593c-0.495,0.494-1.193,1.404-1.353,1.318
		c-0.929-0.505-1.729-1.241-2.571-1.898c0.633-0.635,1.27-1.271,1.904-1.905C576.279,513.938,576.954,514.769,577.625,515.593z"/>
	<path fill-rule="evenodd" clip-rule="evenodd" d="M831.92,822.08c-0.843,0.659-1.687,1.316-2.53,1.974
		c-0.263-0.899-0.975-2.385-0.706-2.587c0.89-0.678,2.131-0.896,3.236-1.291C831.92,820.811,831.92,821.445,831.92,822.08z"/>
</g>
</svg>
